<svg width="178" height="180" viewBox="0 0 178 180" fill="none" xmlns="http://www.w3.org/2000/svg">
<path d="M35.4926 91.5004L85.462 42.1655C87.0308 40.6165 89.5572 40.6291 91.1106 42.1935L155.017 106.551C156.561 108.107 156.566 110.616 155.028 112.177L94.1445 173.974C92.5858 175.556 90.0366 175.566 88.4663 173.995L5.65987 91.1653C4.09829 89.6033 4.09831 87.0712 5.65991 85.5092L85.4776 5.67109C87.0395 4.10886 89.572 4.10846 91.1343 5.6702L174.332 88.8372" stroke="#233232" stroke-width="8"/>
<path d="M28.3379 34.3428C28.3379 33.7905 28.7856 33.3428 29.3379 33.3428H42.9858C43.1802 33.3428 43.3379 33.5004 43.3379 33.6949V43.554C43.3379 51.7216 36.7167 58.3428 28.5492 58.3428C28.4325 58.3428 28.3379 58.2482 28.3379 58.1315V34.3428Z" fill="#233232"/>
<rect x="71.3379" y="88.3428" width="14" height="13" rx="1" fill="#233232"/>
<rect x="93.3379" y="88.3428" width="14" height="13" rx="1" fill="#233232"/>
<rect x="71.3379" y="109.343" width="14" height="13" rx="1" fill="#233232"/>
<rect x="93.3379" y="109.343" width="14" height="13" rx="1" fill="#233232"/>
</svg>
