<svg width="70" height="71" viewBox="0 0 70 71" fill="none" xmlns="http://www.w3.org/2000/svg">
<path d="M14.1473 36.145L33.771 16.7704C34.3872 16.162 35.3794 16.167 35.9895 16.7814L61.0864 42.0557C61.693 42.6666 61.695 43.6519 61.0907 44.2652L37.181 68.5338C36.5688 69.1552 35.5676 69.1588 34.9508 68.5419L2.43153 36.0134C1.81822 35.4 1.81823 34.4055 2.43155 33.792L33.7771 2.43841C34.3906 1.82485 35.3852 1.82469 35.9988 2.43807L68.672 35.0991" stroke="white" stroke-width="3.142"/>
<path d="M11.3379 13.3066H17.2291V17.2341C17.2291 20.4878 14.5915 23.1254 11.3379 23.1254V13.3066Z" fill="white"/>
<rect x="27.6621" y="34.3438" width="5.49851" height="5.10576" fill="white"/>
<rect x="36.3027" y="34.3438" width="5.49851" height="5.10576" fill="white"/>
<rect x="27.6621" y="42.5908" width="5.49851" height="5.10576" fill="white"/>
<rect x="36.3027" y="42.5908" width="5.49851" height="5.10576" fill="white"/>
</svg>
